<svg width="34" height="34" viewBox="0 0 34 34" fill="none" xmlns="http://www.w3.org/2000/svg">
<g id="bookmark-white" opacity="0.4" clip-path="url(#clip0_5_104)">
<g id="Group">
<path id="Vector" d="M29.1613 0.917922L29.1613 0.917846C28.8804 0.797613 28.5866 0.737454 28.2784 0.737454H28.0802V0.737148H5.3963C5.08826 0.737148 4.79476 0.797294 4.51377 0.917547L4.50841 0.919839L4.50838 0.919759C4.06305 1.09506 3.71276 1.36961 3.45219 1.74384L29.1613 0.917922ZM29.1613 0.917922L29.1666 0.920029M29.1613 0.917922L29.1666 0.920029M29.1666 0.920029C29.6118 1.09553 29.9622 1.36977 30.2229 1.74416C30.4833 2.11874 30.6128 2.5303 30.6128 2.98455V2.98458V31.1281C30.6128 31.5825 30.4835 31.994 30.2228 32.3683L30.2228 32.3684C29.9621 32.743 29.6117 33.0175 29.1666 33.1927L29.1666 33.1927L29.1623 33.1945C28.9148 33.2987 28.6216 33.3532 28.2783 33.3532C27.6296 33.3532 27.074 33.139 26.6018 32.7088L16.9748 23.4523L16.8374 23.3202L16.7 23.4523L7.07295 32.7087C6.58414 33.1556 6.02818 33.3753 5.3963 33.3753C5.08816 33.3753 4.79439 33.3152 4.51384 33.195L4.51387 33.195M29.1666 0.920029L4.51387 33.195M4.51387 33.195L4.50836 33.1928M4.51387 33.195L4.50836 33.1928M4.50836 33.1928C4.06306 33.0176 3.71279 32.7431 3.45224 32.369C3.19146 31.994 3.06192 31.5826 3.06192 31.1281V2.98427C3.06192 2.52998 3.19147 2.11842 3.45218 1.74386L4.50836 33.1928ZM27.8791 30.5939L28.2146 30.9159V30.4509V3.33399V3.13578H28.0164H5.65868H5.46047V3.33399V30.4509V30.9159L5.79593 30.5939L15.0312 21.7298L15.0315 21.7294L16.8374 20.0049L18.6435 21.7294L18.6438 21.7298L27.8791 30.5939Z" fill="black" stroke="white" stroke-width="0.396415"/>
</g>
</g>
<defs>
<clipPath id="clip0_5_104">
<rect width="33.0346" height="33.0346" fill="white" transform="translate(0.32019 0.53894)"/>
</clipPath>
</defs>
</svg>
