<svg width="30" height="37" viewBox="0 0 30 37" fill="none" xmlns="http://www.w3.org/2000/svg">
<g id="Group" opacity="0.4">
<path id="Vector" d="M29.5158 31.7364L27.473 8.73213C27.4292 8.22141 26.9987 7.83472 26.4953 7.83472H22.2928C22.2344 3.99704 19.0972 0.89624 15.2449 0.89624C11.3926 0.89624 8.25531 3.99704 8.19694 7.83472H3.99445C3.48373 7.83472 3.06056 8.22141 3.01679 8.73213L0.97391 31.7364C0.97391 31.7656 0.966614 31.7947 0.966614 31.8239C0.966614 34.4432 3.36699 36.5736 6.32187 36.5736H24.1679C27.1227 36.5736 29.5231 34.4432 29.5231 31.8239C29.5231 31.7947 29.5231 31.7656 29.5158 31.7364ZM15.2449 2.86616C18.0101 2.86616 20.2645 5.08414 20.3229 7.83472H10.1669C10.2252 5.08414 12.4797 2.86616 15.2449 2.86616ZM24.1679 34.6037H6.32187C4.46869 34.6037 2.96572 33.378 2.93653 31.8677L4.89186 9.81194H8.18965V12.8033C8.18965 13.3505 8.62741 13.7882 9.17461 13.7882C9.7218 13.7882 10.1596 13.3505 10.1596 12.8033V9.81194H20.3229V12.8033C20.3229 13.3505 20.7606 13.7882 21.3078 13.7882C21.855 13.7882 22.2928 13.3505 22.2928 12.8033V9.81194H25.5906L27.5532 31.8677C27.524 33.378 26.0138 34.6037 24.1679 34.6037Z" fill="black"/>
</g>
</svg>
