<svg width="34" height="42" viewBox="0 0 34 42" fill="none" xmlns="http://www.w3.org/2000/svg">
<g id="noun_filter_671076">
<g id="Group">
<g id="Group_2">
<path id="Vector" fill-rule="evenodd" clip-rule="evenodd" d="M9.85443 8.68655V5.97369C9.85443 5.50238 9.47235 5.1203 9.00104 5.1203C8.52972 5.1203 8.14764 5.50238 8.14764 5.97369V8.76356L9.85443 8.68655ZM8.14764 14.5633V27.1379C8.14764 27.6092 8.52972 27.9913 9.00104 27.9913C9.47235 27.9913 9.85443 27.6092 9.85443 27.1379V14.54" fill="#453885"/>
<path id="Vector_2" fill-rule="evenodd" clip-rule="evenodd" d="M12.9112 11.5954C12.9112 9.48019 11.1951 7.76581 9.07867 7.76581C6.96222 7.76581 5.24615 9.48019 5.24615 11.5954C5.24615 13.7106 6.96222 15.425 9.07867 15.425C11.1951 15.425 12.9112 13.7106 12.9112 11.5954ZM6.95294 11.5954C6.95294 10.4232 7.90448 9.4726 9.07867 9.4726C10.2529 9.4726 11.2044 10.4232 11.2044 11.5954C11.2044 12.7676 10.2529 13.7182 9.07867 13.7182C7.90448 13.7182 6.95294 12.7676 6.95294 11.5954Z" fill="#453885"/>
<path id="Vector_3" fill-rule="evenodd" clip-rule="evenodd" d="M21.6258 24.425V27.1379C21.6258 27.6092 22.0079 27.9913 22.4792 27.9913C22.9505 27.9913 23.3326 27.6092 23.3326 27.1379V24.348L21.6258 24.425ZM23.3326 18.5483L23.3326 5.97371C23.3326 5.50239 22.9505 5.12031 22.4792 5.12031C22.0079 5.12031 21.6258 5.50239 21.6258 5.97371L21.6258 18.5716" fill="#453885"/>
<path id="Vector_4" fill-rule="evenodd" clip-rule="evenodd" d="M18.5692 21.5162C18.5692 23.6314 20.2852 25.3458 22.4017 25.3458C24.5181 25.3458 26.2342 23.6314 26.2342 21.5162C26.2342 19.4009 24.5181 17.6866 22.4017 17.6866C20.2852 17.6866 18.5692 19.4009 18.5692 21.5162ZM24.5274 21.5162C24.5274 22.6884 23.5759 23.639 22.4017 23.639C21.2275 23.639 20.2759 22.6884 20.2759 21.5162C20.2759 20.3439 21.2275 19.3933 22.4017 19.3933C23.5759 19.3933 24.5274 20.3439 24.5274 21.5162Z" fill="#453885"/>
</g>
</g>
</g>
</svg>
