<svg width="37" height="37" viewBox="0 0 37 37" fill="none" xmlns="http://www.w3.org/2000/svg">
<path id="Vector" d="M28.1895 26.5163L28.1897 26.5165L35.2055 33.5323L35.2055 33.5323L35.211 33.5377C35.3539 33.6759 35.4678 33.8412 35.5462 34.0239C35.6245 34.2067 35.6657 34.4031 35.6673 34.602C35.6688 34.8008 35.6308 34.9979 35.5554 35.1818C35.48 35.3658 35.3687 35.5329 35.228 35.6734C35.0873 35.8138 34.9201 35.9249 34.736 36C34.552 36.0752 34.3548 36.1129 34.156 36.1111C33.9572 36.1092 33.7608 36.0678 33.5781 35.9892C33.3955 35.9106 33.2304 35.7964 33.0924 35.6533L33.0925 35.6532L33.0865 35.6473L26.0707 28.6315L25.7823 28.3431L25.4601 28.5932C22.4027 30.9665 18.5557 32.0855 14.7024 31.7222C10.849 31.359 7.27891 29.541 4.71883 26.6382C2.15875 23.7354 0.801135 19.966 0.922365 16.0975C1.0436 12.2289 2.63455 8.55201 5.37137 5.8152C8.10818 3.07838 11.7851 1.48743 15.6537 1.3662C19.5222 1.24497 23.2915 2.60258 26.1943 5.16266C29.0972 7.72274 30.9152 11.2928 31.2784 15.1462C31.6417 18.9996 30.5227 22.8465 28.1494 25.9039L27.8994 26.2259L28.1876 26.5144L28.1895 26.5163ZM16.1312 28.7959C19.3724 28.7959 22.4808 27.5083 24.7727 25.2165C27.0645 22.9246 28.3521 19.8162 28.3521 16.575C28.3521 13.3339 27.0645 10.2254 24.7727 7.93359C22.4808 5.64174 19.3724 4.35419 16.1312 4.35419C12.89 4.35419 9.78162 5.64174 7.48977 7.93359C5.19792 10.2254 3.91037 13.3339 3.91037 16.575C3.91037 19.8162 5.19792 22.9246 7.48977 25.2165C9.78162 27.5083 12.89 28.7959 16.1312 28.7959Z" fill="#453885" stroke="white" stroke-width="0.924969"/>
</svg>
