<svg width="35" height="35" viewBox="0 0 35 35" fill="none" xmlns="http://www.w3.org/2000/svg">
<g id="user" opacity="0.4" clip-path="url(#clip0_5_101)">
<path id="Vector" d="M17.571 16.7669C19.8446 16.7669 21.8131 15.9515 23.4219 14.3426C25.0303 12.734 25.846 10.7658 25.846 8.49197C25.846 6.21891 25.0305 4.25043 23.4217 2.64131C21.8128 1.03297 19.8443 0.217529 17.571 0.217529C15.2972 0.217529 13.3289 1.03297 11.7203 2.64157C10.1117 4.25017 9.29602 6.21865 9.29602 8.49197C9.29602 10.7658 10.1117 12.7343 11.7203 14.3429C13.3295 15.9512 15.2979 16.7669 17.571 16.7669ZM13.1441 4.06511C14.3784 2.83082 15.8264 2.23083 17.571 2.23083C19.3154 2.23083 20.7636 2.83082 21.9981 4.06511C23.2324 5.29968 23.8327 6.74786 23.8327 8.49197C23.8327 10.2366 23.2324 11.6845 21.9981 12.9191C20.7636 14.1537 19.3154 14.7536 17.571 14.7536C15.8269 14.7536 14.379 14.1534 13.1441 12.9191C11.9096 11.6848 11.3093 10.2366 11.3093 8.49197C11.3093 6.74786 11.9096 5.29968 13.1441 4.06511Z" fill="black"/>
<path id="Vector_2" d="M32.05 26.6355C32.0036 25.9661 31.9098 25.2358 31.7717 24.4647C31.6322 23.6878 31.4527 22.9533 31.2377 22.282C31.0155 21.5882 30.7138 20.903 30.3402 20.2464C29.9531 19.565 29.4981 18.9715 28.9875 18.4832C28.4535 17.9723 27.7998 17.5616 27.0439 17.262C26.2906 16.964 25.4557 16.813 24.5627 16.813C24.212 16.813 23.8728 16.9569 23.2178 17.3834C22.8147 17.6463 22.3431 17.9503 21.8168 18.2866C21.3667 18.5734 20.757 18.842 20.004 19.0853C19.2693 19.323 18.5233 19.4436 17.7868 19.4436C17.0507 19.4436 16.3048 19.323 15.5695 19.0853C14.8172 18.8423 14.2073 18.5736 13.758 18.2869C13.2367 17.9537 12.7649 17.6497 12.3557 17.3831C11.7012 16.9566 11.362 16.8127 11.0113 16.8127C10.118 16.8127 9.28347 16.964 8.53041 17.2623C7.77499 17.5613 7.12101 17.9721 6.58656 18.4835C6.07596 18.972 5.62093 19.5652 5.23404 20.2464C4.86105 20.903 4.5591 21.588 4.33682 22.2823C4.12215 22.9536 3.9426 23.6878 3.80316 24.4647C3.66476 25.2348 3.57118 25.9653 3.52479 26.6363C3.47918 27.2924 3.45612 27.9752 3.45612 28.6651C3.45612 30.4584 4.02622 31.9103 5.15043 32.981C6.26075 34.0376 7.72965 34.5734 9.51649 34.5734H26.0591C27.8454 34.5734 29.3143 34.0376 30.4249 32.981C31.5494 31.9111 32.1195 30.4587 32.1195 28.6648C32.1192 27.9726 32.0959 27.2897 32.05 26.6355ZM29.0367 31.5224C28.3031 32.2206 27.3291 32.5601 26.0589 32.5601H9.51649C8.24601 32.5601 7.27199 32.2206 6.53859 31.5226C5.81909 30.8377 5.46942 29.9028 5.46942 28.6651C5.46942 28.0213 5.49066 27.3857 5.53312 26.7755C5.57453 26.1768 5.6592 25.5192 5.78475 24.8204C5.90873 24.1302 6.06652 23.4825 6.2542 22.8962C6.43427 22.3339 6.67987 21.7772 6.98445 21.2409C7.27514 20.7298 7.6096 20.2913 7.97866 19.9379C8.32386 19.6074 8.75897 19.3369 9.27167 19.134C9.74584 18.9464 10.2787 18.8436 10.8572 18.8281C10.9277 18.8656 11.0533 18.9372 11.2567 19.0698C11.6706 19.3395 12.1476 19.6473 12.675 19.9841C13.2695 20.3631 14.0354 20.7054 14.9504 21.0008C15.8859 21.3033 16.84 21.4569 17.787 21.4569C18.734 21.4569 19.6884 21.3033 20.6234 21.0011C21.5392 20.7052 22.3048 20.3631 22.9001 19.9835C23.4398 19.6386 23.9035 19.3398 24.3174 19.0698C24.5208 18.9374 24.6463 18.8656 24.7168 18.8281C25.2956 18.8436 25.8285 18.9464 26.3029 19.134C26.8153 19.3369 27.2504 19.6077 27.5956 19.9379C27.9647 20.291 28.2992 20.7295 28.5898 21.2412C28.8947 21.7772 29.1405 22.3342 29.3204 22.8959C29.5083 23.483 29.6663 24.1305 29.7901 24.8201C29.9154 25.5202 30.0003 26.1781 30.0417 26.7757V26.7763C30.0844 27.3841 30.1059 28.0195 30.1062 28.6651C30.1059 29.903 29.7563 30.8377 29.0367 31.5224Z" fill="black"/>
</g>
<defs>
<clipPath id="clip0_5_101">
<rect width="34.356" height="34.356" fill="white" transform="translate(0.637817 0.217529)"/>
</clipPath>
</defs>
</svg>
